<?xml version="1.0" encoding="UTF-8"?>
<svg version="1.1" xmlns="http://www.w3.org/2000/svg" width="512" height="512">
<path d="M0 0 C0.71238831 -0.0049649 1.42477661 -0.00992981 2.15875244 -0.01504517 C4.53056797 -0.0297201 6.90231632 -0.03648244 9.27416992 -0.04199219 C10.92551169 -0.04774535 12.57685345 -0.05350307 14.22819519 -0.05926514 C17.70275178 -0.06979437 21.17728515 -0.07562243 24.65185547 -0.07910156 C29.07537979 -0.08454851 33.49859036 -0.10848575 37.9220171 -0.13707352 C41.34098657 -0.15583989 44.75988317 -0.16091318 48.17889977 -0.16243744 C49.80736671 -0.16544005 51.43583312 -0.1733864 53.06424904 -0.18662262 C62.52974256 -0.25798008 71.0609372 0.39702643 80.19213867 3.16113281 C81.65738303 3.49587624 83.12564817 3.8181147 84.59838867 4.11816406 C99.42880755 7.20961545 114.30438643 11.01847317 128.19213867 17.16113281 C129.48873144 17.70737614 130.78563819 18.25287444 132.08276367 18.79785156 C146.77074898 25.05602566 161.51386161 32.19529583 174.31713867 41.82128906 C176.20250716 43.16854196 178.09519999 44.18287347 180.19213867 45.16113281 C180.19213867 45.82113281 180.19213867 46.48113281 180.19213867 47.16113281 C181.18793945 47.47050781 181.18793945 47.47050781 182.20385742 47.78613281 C186.29855075 49.670227 189.51889946 52.33251381 193.00463867 55.16113281 C194.04394531 55.98097656 194.04394531 55.98097656 195.10424805 56.81738281 C195.75844727 57.34332031 196.41264648 57.86925781 197.08666992 58.41113281 C197.68326416 58.89066406 198.2798584 59.37019531 198.89453125 59.86425781 C199.53684692 60.50621094 199.53684692 60.50621094 200.19213867 61.16113281 C200.19213867 61.82113281 200.19213867 62.48113281 200.19213867 63.16113281 C200.92658203 63.40879395 201.66102539 63.65645508 202.41772461 63.91162109 C205.46826138 65.28549008 207.21883469 66.8004772 209.58276367 69.15332031 C210.37424805 69.9409375 211.16573242 70.72855469 211.98120117 71.54003906 C212.79331055 72.36375 213.60541992 73.18746094 214.44213867 74.03613281 C215.2697168 74.85210937 216.09729492 75.66808594 216.94995117 76.50878906 C217.7362793 77.29898438 218.52260742 78.08917969 219.33276367 78.90332031 C220.04980469 79.62374512 220.7668457 80.34416992 221.50561523 81.08642578 C223.23461591 83.21338695 223.65126681 84.53352854 224.19213867 87.16113281 C224.76963867 87.44988281 225.34713867 87.73863281 225.94213867 88.03613281 C229.20094978 89.66553836 231.0239117 92.32491275 233.19213867 95.16113281 C233.66635254 95.7748877 234.14056641 96.38864258 234.62915039 97.02099609 C244.26343638 109.67446624 252.82930864 123.06804036 260.19213867 137.16113281 C260.78309326 138.2780249 260.78309326 138.2780249 261.38598633 139.41748047 C272.11861814 159.95113634 279.61605092 182.4657533 284.19213867 205.16113281 C284.45361694 206.4409201 284.71509521 207.7207074 284.98449707 209.03927612 C286.94945646 219.08812553 287.66675667 228.75756507 287.66088867 238.98144531 C287.66802879 240.53872943 287.675733 242.09601104 287.68395996 243.65328979 C287.69726882 246.89198134 287.69903686 250.13042973 287.69311523 253.36914062 C287.68841046 256.63676828 287.70223072 259.9034245 287.73413086 263.17089844 C287.91638261 282.08576675 287.61723699 299.85986754 282.19213867 318.16113281 C281.97525391 318.92087402 281.75836914 319.68061523 281.53491211 320.46337891 C280.1409328 325.30825508 278.58462788 330.08303072 276.94213867 334.84863281 C276.70702576 335.54327637 276.47191284 336.23791992 276.22967529 336.95361328 C269.57841872 356.58229003 260.73919317 374.35217193 250.19213867 392.16113281 C249.84151367 392.75667969 249.49088867 393.35222656 249.12963867 393.96582031 C248.05446516 395.78593548 246.96861258 397.59924757 245.87963867 399.41113281 C245.22350586 400.50941406 244.56737305 401.60769531 243.89135742 402.73925781 C243.33061523 403.53847656 242.76987305 404.33769531 242.19213867 405.16113281 C241.53213867 405.16113281 240.87213867 405.16113281 240.19213867 405.16113281 C239.88276367 406.15693359 239.88276367 406.15693359 239.56713867 407.17285156 C237.68304449 411.26754489 235.02075767 414.4878936 232.19213867 417.97363281 C231.64557617 418.66650391 231.09901367 419.359375 230.53588867 420.07324219 C230.00995117 420.72744141 229.48401367 421.38164062 228.94213867 422.05566406 C228.46260742 422.6522583 227.98307617 423.24885254 227.48901367 423.86352539 C226.84706055 424.50584106 226.84706055 424.50584106 226.19213867 425.16113281 C225.53213867 425.16113281 224.87213867 425.16113281 224.19213867 425.16113281 C223.94447754 425.89557617 223.69681641 426.63001953 223.44165039 427.38671875 C222.0677814 430.43725552 220.55279428 432.18782883 218.19995117 434.55175781 C217.41233398 435.34324219 216.6247168 436.13472656 215.81323242 436.95019531 C214.98952148 437.76230469 214.16581055 438.57441406 213.31713867 439.41113281 C212.50116211 440.23871094 211.68518555 441.06628906 210.84448242 441.91894531 C210.05428711 442.70527344 209.2640918 443.49160156 208.44995117 444.30175781 C207.72952637 445.01879883 207.00910156 445.73583984 206.2668457 446.47460938 C204.13784125 448.20527103 202.81975507 448.6133852 200.19213867 449.16113281 C199.49120469 450.47677477 198.82829305 451.81297487 198.19213867 453.16113281 C196.23901367 454.90722656 196.23901367 454.90722656 193.94213867 456.59863281 C191.14395219 458.68602594 188.43192705 460.78605615 185.81713867 463.09863281 C183.19213867 465.16113281 183.19213867 465.16113281 180.19213867 465.16113281 C180.19213867 465.82113281 180.19213867 466.48113281 180.19213867 467.16113281 C178.32885742 468.66894531 178.32885742 468.66894531 175.87963867 470.28613281 C175.07913086 470.82496094 174.27862305 471.36378906 173.45385742 471.91894531 C171.19213867 473.16113281 171.19213867 473.16113281 168.19213867 473.16113281 C168.19213867 473.82113281 168.19213867 474.48113281 168.19213867 475.16113281 C153.30210035 483.55155123 138.60743079 491.7009655 122.43041992 497.37548828 C120.88643547 497.91743221 119.3448941 498.46636966 117.80541992 499.02099609 C104.14054641 503.93080445 90.42707252 507.35184184 76.19213867 510.16113281 C75.19824883 510.40656326 75.19824883 510.40656326 74.1842804 510.6569519 C66.37645358 512.46501188 58.60417989 512.5256626 50.63354492 512.56738281 C49.89310377 512.57303757 49.15266262 512.57869232 48.38978386 512.58451843 C44.45531725 512.61436823 40.5209942 512.63290068 36.58642578 512.64160156 C33.39519539 512.65029394 30.20507008 512.67778688 27.01416016 512.72363281 C6.50984199 513.01226643 -11.92420819 511.76329938 -31.80786133 506.16113281 C-34.09092896 505.53788767 -36.37405112 504.91484225 -38.65722656 504.29199219 C-48.66430677 501.54304484 -58.36355201 498.49516517 -67.80786133 494.16113281 C-69.11102703 493.60676055 -70.41584677 493.05626708 -71.72192383 492.50878906 C-78.71276498 489.55858564 -85.35580913 486.48718072 -91.78833008 482.42285156 C-93.9136402 481.0467801 -93.9136402 481.0467801 -96.74536133 479.72363281 C-109.39180078 473.27136779 -120.88015032 464.19835339 -132.18286133 455.66113281 C-132.74859863 455.23985107 -133.31433594 454.81856934 -133.8972168 454.38452148 C-135.23916109 453.35841532 -136.52946158 452.26539838 -137.80786133 451.16113281 C-137.80786133 450.50113281 -137.80786133 449.84113281 -137.80786133 449.16113281 C-138.39180664 448.89429688 -138.97575195 448.62746094 -139.57739258 448.35253906 C-147.88374078 443.91569808 -156.61465918 434.94274487 -161.80786133 427.16113281 C-161.80786133 426.50113281 -161.80786133 425.84113281 -161.80786133 425.16113281 C-162.37375977 424.95230469 -162.9396582 424.74347656 -163.52270508 424.52832031 C-166.65831921 422.65231186 -168.2373302 420.23845 -170.37036133 417.28613281 C-171.13477539 416.23683594 -171.89918945 415.18753906 -172.68676758 414.10644531 C-173.38672852 413.13449219 -174.08668945 412.16253906 -174.80786133 411.16113281 C-175.39438477 410.41605469 -175.9809082 409.67097656 -176.58520508 408.90332031 C-177.80786133 407.16113281 -177.80786133 407.16113281 -177.80786133 405.16113281 C-178.46786133 405.16113281 -179.12786133 405.16113281 -179.80786133 405.16113281 C-181.31567383 403.04394531 -181.31567383 403.04394531 -182.93286133 400.28613281 C-183.74110352 398.92875 -183.74110352 398.92875 -184.56567383 397.54394531 C-185.80786133 395.16113281 -185.80786133 395.16113281 -185.80786133 393.16113281 C-186.46786133 393.16113281 -187.12786133 393.16113281 -187.80786133 393.16113281 C-198.14092273 375.15522368 -207.44826884 356.96508119 -213.80786133 337.16113281 C-214.16235352 336.10410156 -214.5168457 335.04707031 -214.88208008 333.95800781 C-217.40253438 326.18743725 -219.26695934 318.28304978 -221.05810547 310.31835938 C-221.35575806 309.01656738 -221.35575806 309.01656738 -221.65942383 307.68847656 C-221.83296387 306.91238037 -222.00650391 306.13628418 -222.18530273 305.33666992 C-222.69634645 303.17206212 -222.69634645 303.17206212 -223.8296051 301.52655029 C-225.24151 298.11257301 -225.09441929 294.77472713 -225.08251953 291.13891602 C-225.08763046 290.33348862 -225.09274139 289.52806122 -225.0980072 288.69822693 C-225.11190355 286.03604694 -225.11094567 283.37412601 -225.10864258 280.71191406 C-225.11253098 278.85588994 -225.11686595 276.9998667 -225.12162781 275.1438446 C-225.12909121 271.2508964 -225.12879896 267.35803886 -225.12353516 263.46508789 C-225.11775634 258.49317536 -225.13463242 253.52163727 -225.15787983 248.54978657 C-225.1726676 244.71402337 -225.17348175 240.87834914 -225.1703701 237.04256248 C-225.17088131 235.21066741 -225.17608115 233.37876709 -225.18618202 231.5468998 C-225.19861992 228.97446613 -225.19171003 226.40274587 -225.18017578 223.83032227 C-225.18781952 223.08350189 -225.19546326 222.33668152 -225.20333862 221.56723022 C-225.15552007 216.70391477 -224.21151095 212.69872778 -222.52311993 208.1379118 C-221.54826124 205.44366923 -221.02536026 202.72337206 -220.49536133 199.91113281 C-214.8300568 172.91422248 -205.02927325 140.42612123 -186.80786133 119.16113281 C-186.08666541 118.0149898 -185.39321735 116.85027113 -184.74536133 115.66113281 C-184.41665039 115.07203125 -184.08793945 114.48292969 -183.74926758 113.87597656 C-183.43860352 113.31007813 -183.12793945 112.74417969 -182.80786133 112.16113281 C-181.18286133 109.22363281 -181.18286133 109.22363281 -179.80786133 107.16113281 C-179.14786133 107.16113281 -178.48786133 107.16113281 -177.80786133 107.16113281 C-177.60161133 106.49726562 -177.39536133 105.83339844 -177.18286133 105.14941406 C-175.29876714 101.05472073 -172.63648033 97.83437203 -169.80786133 94.34863281 C-169.26129883 93.65576172 -168.71473633 92.96289062 -168.15161133 92.24902344 C-167.62567383 91.59482422 -167.09973633 90.940625 -166.55786133 90.26660156 C-166.07833008 89.67000732 -165.59879883 89.07341309 -165.10473633 88.45874023 C-164.67676758 88.03052979 -164.24879883 87.60231934 -163.80786133 87.16113281 C-163.14786133 87.16113281 -162.48786133 87.16113281 -161.80786133 87.16113281 C-161.5602002 86.42668945 -161.31253906 85.69224609 -161.05737305 84.93554688 C-159.68350406 81.8850101 -158.16851694 80.13443679 -155.81567383 77.77050781 C-155.02805664 76.97902344 -154.24043945 76.18753906 -153.42895508 75.37207031 C-152.60524414 74.55996094 -151.7815332 73.74785156 -150.93286133 72.91113281 C-150.11688477 72.08355469 -149.3009082 71.25597656 -148.46020508 70.40332031 C-147.27491211 69.22382813 -147.27491211 69.22382813 -146.06567383 68.02050781 C-145.34524902 67.3034668 -144.62482422 66.58642578 -143.88256836 65.84765625 C-141.75596601 64.11894725 -140.43509927 63.70180244 -137.80786133 63.16113281 C-137.52942383 62.58621094 -137.25098633 62.01128906 -136.96411133 61.41894531 C-135.23582897 58.04412368 -132.30374305 56.22618084 -129.30786133 54.03613281 C-124.88617051 50.80392611 -124.88617051 50.80392611 -120.80786133 47.16113281 C-119.81786133 47.16113281 -118.82786133 47.16113281 -117.80786133 47.16113281 C-117.80786133 46.50113281 -117.80786133 45.84113281 -117.80786133 45.16113281 C-115.94458008 43.65332031 -115.94458008 43.65332031 -113.49536133 42.03613281 C-112.69485352 41.49730469 -111.8943457 40.95847656 -111.06958008 40.40332031 C-108.80786133 39.16113281 -108.80786133 39.16113281 -105.80786133 39.16113281 C-105.80786133 38.50113281 -105.80786133 37.84113281 -105.80786133 37.16113281 C-102.842971 35.55359802 -99.87470456 33.95264725 -96.90161133 32.36035156 C-94.01799137 30.81585865 -91.14579276 29.25179577 -88.27661133 27.68066406 C-79.05961339 22.67595499 -69.92730822 18.27490677 -59.99194336 14.90283203 C-57.56903515 14.08002909 -55.15578802 13.23140773 -52.74145508 12.38378906 C-38.68240566 7.51080901 -24.68138526 3.69981088 -9.93286133 1.55566406 C-1.59929403 0.00843925 -1.59929403 0.00843925 0 0 Z M-108.80786133 145.16113281 C-110.83366445 147.82996034 -110.83366445 147.82996034 -112.55786133 150.72363281 C-113.15083008 151.67367187 -113.74379883 152.62371094 -114.35473633 153.60253906 C-116.87557254 158.0411082 -116.95414426 161.82854259 -116.94830322 166.79508972 C-116.95127434 167.58013408 -116.95424547 168.36517843 -116.95730662 169.17401201 C-116.96600083 171.81320296 -116.96750249 174.45234858 -116.96899414 177.09155273 C-116.97362187 178.98046974 -116.97864647 180.86938581 -116.98403931 182.75830078 C-116.99717122 187.8969258 -117.00361002 193.03553775 -117.00804996 198.17417693 C-117.01097992 201.38458097 -117.01508462 204.59498144 -117.01955414 207.80538368 C-117.03323227 217.84979333 -117.04289691 227.8941948 -117.04675603 237.93861312 C-117.05123518 249.53334837 -117.06877516 261.12796564 -117.09775662 272.72266501 C-117.11937844 281.68413764 -117.12946061 290.64557708 -117.13079715 299.60707551 C-117.13184498 304.95948813 -117.13774804 310.31178988 -117.15561676 315.66417503 C-117.17210561 320.70139989 -117.17424893 325.73843067 -117.16547775 330.77567291 C-117.16470777 332.62192365 -117.16904499 334.46818485 -117.178936 336.31440926 C-117.19167319 338.84058863 -117.18576924 341.36608249 -117.175354 343.89225769 C-117.18341041 344.61786162 -117.19146681 345.34346555 -117.19976735 346.09105748 C-117.11720663 354.69027498 -113.71462149 361.94839183 -107.80786133 368.16113281 C-99.40290191 374.9090169 -91.05418517 375.45426077 -80.63037109 375.38818359 C-79.41990616 375.38847565 -78.20944122 375.3887677 -76.96229553 375.3890686 C-73.661063 375.3879182 -70.360084 375.37792306 -67.0588963 375.36392069 C-63.60225507 375.35137489 -60.14561007 375.35023981 -56.68894958 375.34786987 C-50.15136285 375.34166638 -43.61384342 375.32527095 -37.07628626 375.30517089 C-29.63008404 375.28277661 -22.18387853 375.27180961 -14.73765099 375.26178002 C0.5723178 375.24090365 15.88221954 375.20574978 31.19213867 375.16113281 C31.18821106 374.56916611 31.18428345 373.9771994 31.18023682 373.36729431 C31.16448295 370.641028 31.15483802 367.91477131 31.14526367 365.18847656 C31.1358374 363.79211975 31.1358374 363.79211975 31.1262207 362.36755371 C31.06664144 339.682751 36.86717928 317.17232435 50.90307617 298.93847656 C52.38784312 297.25723023 52.38784312 297.25723023 52.19213867 295.16113281 C52.85213867 295.16113281 53.51213867 295.16113281 54.19213867 295.16113281 C55.45367427 293.66268912 56.6515541 292.11036855 57.81713867 290.53613281 C61.00894445 286.42573812 64.1364368 283.33285721 68.43041992 280.41503906 C70.21019543 279.2315199 70.21019543 279.2315199 71.55151367 277.73925781 C89.80566656 260.18050123 117.33639401 255.50588783 141.50463867 255.90332031 C152.40825715 256.26362012 162.86921449 258.67760186 173.19213867 262.16113281 C175.19202974 262.8281262 177.19201926 263.49482448 179.19213867 264.16113281 C179.26167991 250.59176106 179.31497107 237.02243178 179.34757519 223.45291805 C179.36322431 217.15189757 179.38444918 210.8509991 179.41845703 204.55004883 C179.45107682 198.46814844 179.46899736 192.38636535 179.4767704 186.30438423 C179.48230916 183.98517574 179.49312498 181.6659736 179.50932884 179.34681511 C179.53113747 176.09589692 179.5341041 172.84546211 179.53271484 169.59448242 C179.54350067 168.63782181 179.5542865 167.68116119 179.56539917 166.69551086 C179.53932909 161.04966664 178.79327997 157.18652665 176.19213867 152.16113281 C175.80026367 151.35675781 175.40838867 150.55238281 175.00463867 149.72363281 C174.60245117 148.95019531 174.60245117 148.95019531 174.19213867 148.16113281 C173.53213867 148.16113281 172.87213867 148.16113281 172.19213867 148.16113281 C171.93948242 147.55527344 171.68682617 146.94941406 171.42651367 146.32519531 C170.02192801 143.86272551 168.8525658 142.98425764 166.44213867 141.53613281 C165.45987305 140.92898437 165.45987305 140.92898437 164.45776367 140.30957031 C158.26652328 137.17125191 152.84897619 136.87149466 146.04693604 136.89370728 C145.02797705 136.88917616 144.00901807 136.88464505 142.95918155 136.87997663 C139.54622787 136.86732065 136.13343353 136.8689538 132.72045898 136.87060547 C130.2727742 136.86462095 127.8250913 136.85781558 125.37741089 136.85025024 C119.41915349 136.83441056 113.46095868 136.82814147 107.50268605 136.82702549 C102.65737123 136.8260741 97.81206943 136.82195926 92.96675873 136.81562424 C79.21847554 136.79801583 65.47022353 136.78878463 51.72192898 136.79028518 C50.98119974 136.7903651 50.2404705 136.79044501 49.47729492 136.79052734 C48.73565734 136.79060911 47.99401976 136.79069087 47.22990832 136.79077511 C35.21571882 136.79158768 23.2016548 136.77245621 11.18750158 136.74425061 C-1.15926108 136.71549376 -13.50596261 136.70171188 -25.8527596 136.70343816 C-32.78021752 136.70410114 -39.70754394 136.69864939 -46.63497162 136.67708206 C-53.15210884 136.65692163 -59.66901627 136.65757258 -66.18618393 136.67211533 C-68.57502778 136.67420509 -70.96388897 136.66949263 -73.35270309 136.65739441 C-76.62036814 136.64192019 -79.88707909 136.65126543 -83.15472412 136.66665649 C-84.09424006 136.65636937 -85.033756 136.64608224 -86.00174212 136.63548338 C-94.4677835 136.72326466 -102.66767518 139.05505881 -108.80786133 145.16113281 Z M157.13745117 316.95019531 C156.31783401 317.76694229 156.31783401 317.76694229 155.48165894 318.60018921 C154.33809843 319.74239768 153.19702363 320.88709979 152.05834961 322.03417969 C150.30829075 323.79503532 148.54770059 325.54485759 146.78588867 327.29394531 C145.67326693 328.4078872 144.56126496 329.52244855 143.44995117 330.63769531 C142.92192902 331.16166901 142.39390686 331.6856427 141.84988403 332.22549438 C139.04505612 334.72613023 139.04505612 334.72613023 138.19213867 338.16113281 C136.70713867 338.65613281 136.70713867 338.65613281 135.19213867 339.16113281 C133.81810705 340.51669049 133.81810705 340.51669049 132.44213867 342.28613281 C128.63070041 346.74371618 124.64204927 351.00776619 120.56713867 355.22363281 C119.92164063 355.91537598 119.27614258 356.60711914 118.61108398 357.31982422 C117.98556641 357.95968262 117.36004883 358.59954102 116.71557617 359.25878906 C115.87905518 360.13289429 115.87905518 360.13289429 115.02563477 361.0246582 C113.19213867 362.16113281 113.19213867 362.16113281 110.76489258 362.11767578 C107.50582227 360.90596223 105.89822745 359.27527181 103.50463867 356.75878906 C102.6409668 355.86869141 101.77729492 354.97859375 100.88745117 354.06152344 C99.99799805 353.12501953 99.10854492 352.18851562 98.19213867 351.22363281 C96.42846434 349.37433082 94.6578774 347.53159068 92.87963867 345.69628906 C92.09975586 344.87523682 91.31987305 344.05418457 90.51635742 343.20825195 C86.39049841 339.57428895 82.45386512 338.75053578 77.11401367 338.91113281 C73.05223993 339.43949362 70.78854966 341.5812888 67.94213867 344.34863281 C65.76013868 347.85541851 64.78006605 351.01792994 65.19213867 355.16113281 C67.43407181 360.72424234 70.88078715 364.24351052 75.09057617 368.35253906 C76.09853745 369.35413307 76.09853745 369.35413307 77.12686157 370.3759613 C79.26664623 372.49903544 81.41662374 374.61143387 83.56713867 376.72363281 C85.00533032 378.14676231 86.44283754 379.57058383 87.87963867 380.99511719 C91.10318647 384.18889127 94.33310015 387.37604466 97.57022095 390.55606079 C99.06627433 392.03657573 100.54171458 393.53511986 102.01538086 395.0378418 C104.10824013 397.07929503 105.27603054 397.96625112 108.06713867 398.66113281 C108.68331055 398.83644531 109.29948242 399.01175781 109.93432617 399.19238281 C116.47022632 399.10192053 120.76395956 395.03962902 125.11631775 390.66448975 C125.82067459 389.93635071 126.52503143 389.20821167 127.25073242 388.45800781 C127.99871597 387.7019928 128.74669952 386.94597778 129.51734924 386.16705322 C131.89779519 383.75772978 134.26418763 381.33517163 136.62963867 378.91113281 C138.99402807 376.50399166 141.36130588 374.09976445 143.73121643 371.69805908 C145.20093392 370.20694825 146.66710618 368.71233127 148.12901306 367.21356201 C152.05171867 363.21566924 156.08353672 359.44360506 160.32807922 355.78994751 C163.04136357 353.4190803 165.60306664 350.91222958 168.15307617 348.36816406 C168.66971832 347.85485031 169.18636047 347.34153656 169.71865845 346.81266785 C170.79362869 345.74269932 171.86730624 344.67143052 172.93969727 343.59887695 C174.57966177 341.96112662 176.22750859 340.33158144 177.87573242 338.70214844 C178.9270015 337.65380927 179.97780015 336.60499811 181.02807617 335.55566406 C181.51762787 335.07329788 182.00717957 334.5909317 182.51156616 334.09394836 C186.77390897 329.80275426 188.48242283 326.83484364 188.56713867 320.78613281 C188.46749621 315.81065237 187.71853099 312.87814093 184.19213867 309.16113281 C173.80667009 302.44112373 164.44216034 309.58816076 157.13745117 316.95019531 Z " fill="#2390E1" transform="translate(224.807861328125,-0.1611328125)"/>
<path d="M0 0 C0.71736328 0.50724609 1.43472656 1.01449219 2.17382812 1.53710938 C3.63764109 2.53731753 5.10245143 3.53606791 6.56835938 4.53320312 C7.20233643 4.97720459 7.83631348 5.42120605 8.48950195 5.87866211 C10.38750162 7.11668171 12.31697309 8.12598564 14.36132812 9.09960938 C14.36132812 9.75960937 14.36132812 10.41960937 14.36132812 11.09960938 C14.94906006 11.22255371 15.53679199 11.34549805 16.14233398 11.47216797 C18.37396044 12.10318128 19.91782723 12.89781253 21.86523438 14.13867188 C22.51790283 14.55076904 23.17057129 14.96286621 23.84301758 15.38745117 C24.8730188 16.04934448 24.8730188 16.04934448 25.92382812 16.72460938 C26.63692139 17.17682861 27.35001465 17.62904785 28.0847168 18.0949707 C30.18002739 19.42504564 32.2708996 20.76187957 34.36132812 22.09960938 C36.29881629 23.3287947 38.23631451 24.55796417 40.17382812 25.78710938 C41.90334374 26.89072938 43.63252438 27.99487457 45.36132812 29.09960938 C49.02535706 31.4371079 52.69266369 33.76939309 56.36132812 36.09960938 C57.05291016 36.53966309 57.74449219 36.9797168 58.45703125 37.43310547 C60.84054651 38.94891975 63.22560549 40.46227176 65.61132812 41.97460938 C66.42190674 42.48902588 67.23248535 43.00344238 68.06762695 43.53344727 C71.98807866 46.01069219 75.922389 48.45155271 79.91992188 50.80273438 C80.96841309 51.41979248 80.96841309 51.41979248 82.03808594 52.04931641 C83.35245635 52.81757517 84.67069213 53.57926863 85.99316406 54.33349609 C87.48174589 55.20204259 88.92733853 56.14361631 90.36132812 57.09960938 C90.36132812 57.75960937 90.36132812 58.41960937 90.36132812 59.09960938 C92.34132813 59.09960938 94.32132812 59.09960938 96.36132812 59.09960938 C96.36132812 58.43960938 96.36132812 57.77960938 96.36132812 57.09960938 C98.21289062 55.86523438 98.21289062 55.86523438 100.98632812 54.34960938 C107.15812434 50.8551763 113.1389474 47.11166322 119.11132812 43.28710938 C121.04615987 42.05002997 122.98105523 40.81305005 124.91601562 39.57617188 C126.3154541 38.68140137 126.3154541 38.68140137 127.74316406 37.76855469 C133.15918615 34.31611838 138.61364887 30.92552146 144.06591797 27.53076172 C146.78733133 25.83400304 149.50604913 24.13296679 152.22460938 22.43164062 C172.52989868 9.72564097 172.52989868 9.72564097 180.61132812 4.81445312 C182.53216037 3.61666142 184.42650453 2.37579934 186.29882812 1.10351562 C191.77021807 -2.59115938 195.65467271 -5.12394581 202.36132812 -4.90039062 C207.50674494 -3.35676558 210.65027176 -1.59260357 213.36132812 3.09960938 C214.80467023 8.23620923 214.46903879 12.14029016 212.36132812 17.09960938 C211.70132813 17.09960938 211.04132813 17.09960938 210.36132812 17.09960938 C210.03132812 18.08960938 209.70132813 19.07960937 209.36132812 20.09960938 C207.25985781 21.52582338 205.19195008 22.79186894 202.98632812 24.03710938 C201.61912885 24.83172807 200.25330976 25.62872487 198.88867188 26.42773438 C198.1576123 26.85505859 197.42655273 27.28238281 196.67333984 27.72265625 C192.57950133 30.16080295 188.56791723 32.72828004 184.54882812 35.28710938 C179.04888362 38.77930084 173.53744279 42.23222438 167.93164062 45.55273438 C164.44430626 47.65149487 160.99753406 49.81311922 157.54882812 51.97460938 C149.50656006 57.01513286 141.43100579 61.9989291 133.33398438 66.95117188 C128.3987394 69.97579868 123.47929587 73.01743977 118.59960938 76.13085938 C117.34784912 76.9279834 117.34784912 76.9279834 116.07080078 77.74121094 C114.43157847 78.78663171 112.79441175 79.83528515 111.15966797 80.88769531 C96.7906918 90.04727439 96.7906918 90.04727439 89.70507812 88.83398438 C85.12234183 87.39806034 81.32223182 84.75616714 77.36132812 82.09960938 C75.61424939 80.97007811 73.86416176 79.84518924 72.11132812 78.72460938 C71.21285156 78.14839844 70.314375 77.5721875 69.38867188 76.97851562 C63.81120441 73.51688743 58.08298182 70.31542933 52.36132812 67.09960938 C52.36132812 66.43960938 52.36132812 65.77960938 52.36132812 65.09960938 C51.15476563 64.79023438 51.15476563 64.79023438 49.92382812 64.47460938 C46.1899678 63.0334703 43.40333235 61.23118845 40.12695312 58.97460938 C36.87764195 56.77168655 33.56661097 54.67686495 30.23632812 52.59960938 C29.57246094 52.18549805 28.90859375 51.77138672 28.22460938 51.34472656 C20.11921189 46.30673868 11.96296511 41.35143372 3.80664062 36.39648438 C2.90848633 35.84927734 2.01033203 35.30207031 1.08496094 34.73828125 C-0.78557748 33.61287305 -2.66717214 32.50570123 -4.55761719 31.4140625 C-5.47381836 30.88232422 -6.39001953 30.35058594 -7.33398438 29.80273438 C-8.57559326 29.09358887 -8.57559326 29.09358887 -9.84228516 28.37011719 C-10.73149658 27.74121582 -10.73149658 27.74121582 -11.63867188 27.09960938 C-11.63867188 26.43960938 -11.63867188 25.77960938 -11.63867188 25.09960938 C-12.21488281 24.98101562 -12.79109375 24.86242187 -13.38476562 24.74023438 C-18.14410666 23.38749273 -22.26833326 20.55559415 -25.63867188 16.97460938 C-27.39302356 11.93084827 -28.02201023 6.09093078 -25.72460938 1.12304688 C-18.83965189 -7.89402647 -8.18924102 -5.50592659 0 0 Z " fill="#2390E2" transform="translate(162.638671875,179.900390625)"/>
<path d="M0 0 C1.5527165 -0.00573832 1.5527165 -0.00573832 3.136801 -0.01159257 C6.61047818 -0.02192329 10.08399009 -0.0179302 13.55767822 -0.01396179 C16.04624586 -0.01830828 18.53481216 -0.02349122 21.02337646 -0.02944946 C27.0850459 -0.04146571 33.14665022 -0.04398974 39.20832559 -0.0416492 C44.13710092 -0.03986573 49.06586281 -0.04161631 53.99463654 -0.04587364 C54.69630233 -0.04646883 55.39796813 -0.04706402 56.12089653 -0.04767724 C57.54639528 -0.04888901 58.97189403 -0.05010315 60.39739278 -0.05131962 C73.76691399 -0.06219669 87.13640997 -0.06003221 100.5059326 -0.05393478 C112.72776802 -0.04876864 124.94952366 -0.06001272 137.1713433 -0.07903299 C149.72712038 -0.09842278 162.28285975 -0.10666519 174.8386519 -0.10290974 C181.88511418 -0.10099902 188.93150862 -0.10347242 195.97795868 -0.11762428 C202.60667998 -0.13080254 209.23526824 -0.12826247 215.86399841 -0.11521339 C218.29518436 -0.11284693 220.72638153 -0.11558478 223.15755463 -0.12383652 C226.48022136 -0.13429961 229.80235238 -0.12620616 233.125 -0.11352539 C234.56301204 -0.12458682 234.56301204 -0.12458682 236.03007483 -0.13587171 C245.73351532 -0.05814068 252.7473707 2.27722467 259.80084229 9.02241516 C267.99842258 18.12554212 267.97662842 27.75262116 267.92999268 39.46211243 C267.9301387 40.43878372 267.93028473 41.41545502 267.93043518 42.42172241 C267.92974381 45.61937251 267.92198803 48.81696286 267.91412354 52.01460266 C267.9122566 54.24376392 267.910834 56.47292559 267.90983582 58.7020874 C267.90603236 64.5463628 267.89622077 70.39061303 267.88513184 76.23487854 C267.87487087 82.20767374 267.87032818 88.18047304 267.86529541 94.15327454 C267.85459642 105.8557595 267.83754627 117.55822586 267.81646729 129.26069641 C267.15646729 128.93069641 266.49646729 128.60069641 265.81646729 128.26069641 C265.80766792 126.31084084 265.80766792 126.31084084 265.7986908 124.32159424 C265.74145248 112.06510408 265.66868473 99.80879116 265.58075237 87.55248165 C265.53604456 81.25153828 265.49678908 74.95065963 265.47003174 68.64961243 C265.44400326 62.56758983 265.40360341 56.48581624 265.35328102 50.40394783 C265.33660936 48.08478965 265.32509696 45.7655884 265.31885338 43.44637871 C265.30921587 40.19533624 265.28115949 36.94493127 265.24884033 33.69404602 C265.25099297 32.2590551 265.25099297 32.2590551 265.25318909 30.79507446 C265.17408478 25.16036964 264.3600451 21.29477817 261.81646729 16.26069641 C261.44338097 14.93793585 261.08600313 13.60837564 260.81646729 12.26069641 C260.15646729 12.26069641 259.49646729 12.26069641 258.81646729 12.26069641 C258.11521729 11.51819641 257.41396729 10.77569641 256.69146729 10.01069641 C251.74334671 5.27771152 245.4991802 2.14293437 238.57091427 2.12647533 C237.70025922 2.12201749 236.82960417 2.11755965 235.93256563 2.11296672 C234.97538828 2.11315108 234.01821092 2.11333544 233.0320282 2.11352539 C232.01563249 2.1098487 230.99923679 2.10617201 229.95204121 2.10238391 C226.52981035 2.09132851 223.10760983 2.08750005 219.68536377 2.08369446 C217.23812259 2.07743114 214.79088236 2.07078446 212.34364319 2.06378174 C204.98697679 2.04453981 197.63031846 2.03395049 190.27363428 2.02505395 C186.80766164 2.02066965 183.34169051 2.01530312 179.87571907 2.01006508 C168.3505952 1.99305141 156.82547229 1.9785586 145.30033779 1.97131634 C142.30953915 1.96940649 139.31874051 1.96748615 136.32794189 1.9655304 C135.58460781 1.96504666 134.84127373 1.96456292 134.07541437 1.96406452 C122.04164081 1.95576935 110.00796682 1.93044178 97.97423672 1.89794972 C85.61401582 1.86484883 73.25384546 1.84686475 60.89358002 1.8436721 C53.95600815 1.84150956 47.01858139 1.83279883 40.08105278 1.80721092 C33.55165604 1.78318385 27.02247304 1.77969727 20.49302483 1.78997231 C18.09934115 1.79046779 15.70564464 1.78414375 13.31200027 1.77041626 C10.03761935 1.75269196 6.764174 1.75980706 3.48979187 1.77294922 C2.54822957 1.76197997 1.60666727 1.75101073 0.63657278 1.73970908 C-7.04321408 1.81384423 -13.85059771 3.60949811 -19.93353271 8.44819641 C-22.95225751 12.2216024 -25.58460686 16.19082425 -28.18353271 20.26069641 C-28.84353271 21.25069641 -29.50353271 22.24069641 -30.18353271 23.26069641 C-29.68506443 16.61445259 -26.86218681 11.7403925 -22.02728271 7.26460266 C-14.62189621 1.32795114 -9.36745394 -0.03658819 0 0 Z " fill="#1489E0" transform="translate(138.18353271484375,135.7393035888672)"/>
<path d="M0 0 C2.37507418 1.46269812 4.00800062 3.00800062 6 5 C5.34 5.66 4.68 6.32 4 7 C3.34 6.360625 2.68 5.72125 2 5.0625 C-1.69635524 2.52125577 -4.53815363 1.77911652 -9 2 C-12.09925069 3.04901119 -12.09925069 3.04901119 -15 5 C-15.62777344 5.38800781 -16.25554687 5.77601563 -16.90234375 6.17578125 C-18.27482916 7.02666952 -19.64194723 7.88626884 -21.00390625 8.75390625 C-22.76042833 9.85044352 -24.56488985 10.86938325 -26.375 11.875 C-30.3817461 14.11840853 -34.05195337 16.81873016 -37.765625 19.51171875 C-40 21 -40 21 -43 22 C-43.33 21.34 -43.66 20.68 -44 20 C-43.030625 19.39414063 -42.06125 18.78828125 -41.0625 18.1640625 C-40.42207764 17.76372803 -39.78165527 17.36339355 -39.12182617 16.95092773 C-37.69516099 16.05940563 -36.268236 15.16829916 -34.84106445 14.27758789 C-31.04805537 11.90950321 -27.2596486 9.53463387 -23.48046875 7.14453125 C-22.76052734 6.69062012 -22.04058594 6.23670898 -21.29882812 5.76904297 C-19.91181035 4.89429795 -18.52634073 4.01709237 -17.14257812 3.13720703 C-11.07213811 -0.68394584 -6.95943859 -1.78720277 0 0 Z " fill="#359BE3" transform="translate(369,176)"/>
<path d="M0 0 C7.72583262 4.29720867 15.25256236 8.72096776 22.55859375 13.7109375 C25.32188869 15.57690441 28.13870074 17.34490376 30.97265625 19.1015625 C32.27746948 19.91222168 32.27746948 19.91222168 33.60864258 20.73925781 C35.35362214 21.81989031 37.1021114 22.89487822 38.85424805 23.96386719 C39.65000244 24.45790039 40.44575684 24.95193359 41.265625 25.4609375 C41.98524414 25.90228027 42.70486328 26.34362305 43.44628906 26.79833984 C43.95901367 27.1948877 44.47173828 27.59143555 45 28 C45 28.66 45 29.32 45 30 C41.34573075 28.65575095 38.25332089 27.00751217 35 24.875 C30.92721175 22.23613853 26.82962468 19.65376965 22.6875 17.125 C21.04223585 16.11101226 19.39699477 15.09698541 17.75292969 14.08105469 C16.53377638 13.32918688 15.31294529 12.58003561 14.09082031 11.83300781 C12.15842421 10.64851165 10.23486052 9.45069848 8.3125 8.25 C7.71203857 7.88535645 7.11157715 7.52071289 6.49291992 7.14501953 C3.31530913 5.14153386 1.25956154 3.60803436 0 0 Z " fill="#3C9FE6" transform="translate(188,197)"/>
<path d="M0 0 C4.72172641 1.37776819 8.72562072 3.40898488 12.875 6 C13.46796875 6.35578125 14.0609375 6.7115625 14.671875 7.078125 C16.15294043 7.99269997 17.58212216 8.99023537 19 10 C19 10.66 19 11.32 19 12 C20.98 12 22.96 12 25 12 C25 11.34 25 10.68 25 10 C27.44921875 8.34375 27.44921875 8.34375 30.6875 6.5 C32.27111328 5.58734375 32.27111328 5.58734375 33.88671875 4.65625 C36.55619481 3.23610213 39.16914502 2.05041001 42 1 C42 1.66 42 2.32 42 3 C39.64058147 4.93962153 36.96939104 6.45634022 34.375 8.0625 C33.66214844 8.52205078 32.94929688 8.98160156 32.21484375 9.45507812 C28.20170792 11.96236758 24.85661569 13.87529375 20 14 C12.75022717 11.60953436 5.8897689 5.71181512 0 1 C0 0.67 0 0.34 0 0 Z " fill="#3CA1E7" transform="translate(234,227)"/>
<path d="M0 0 C0.495 1.485 0.495 1.485 1 3 C-4.15403481 11.59883045 -13.84172257 18.94969183 -20.9375 26 C-22.30296745 27.36044318 -23.66820386 28.72111831 -25.03320312 30.08203125 C-28.35280886 33.3907031 -31.67553273 36.69621322 -35 40 C-35.495 38.515 -35.495 38.515 -36 37 C-35.37738281 36.44957031 -34.75476563 35.89914062 -34.11328125 35.33203125 C-27.35064323 29.24848659 -20.81601026 22.95135741 -14.36288452 16.54013062 C-12.95314604 15.14053348 -11.53873031 13.74565261 -10.12426758 12.35083008 C-9.24665771 11.47450928 -8.36904785 10.59818848 -7.46484375 9.6953125 C-6.677146 8.91172363 -5.88944824 8.12813477 -5.07788086 7.32080078 C-3.01042781 5.01164689 -1.49735731 2.70608186 0 0 Z " fill="#1488DF" transform="translate(413,325)"/>
<path d="M0 0 C1.03447266 0.83724609 1.03447266 0.83724609 2.08984375 1.69140625 C2.08984375 2.35140625 2.08984375 3.01140625 2.08984375 3.69140625 C-1.34356906 2.71043116 -3.86466974 1.72403788 -6.78515625 -0.37109375 C-10.55106284 -2.70595584 -13.4948517 -3.52010535 -17.91015625 -3.30859375 C-22.1494967 -1.9488053 -23.51577062 -0.97904931 -25.78515625 2.87890625 C-26.15640625 3.80703125 -26.52765625 4.73515625 -26.91015625 5.69140625 C-27.57015625 4.37140625 -28.23015625 3.05140625 -28.91015625 1.69140625 C-20.46408849 -9.73562661 -10.76964805 -7.07635311 0 0 Z " fill="#399FE6" transform="translate(164.91015625,181.30859375)"/>
<path d="M0 0 C0.66 0.33 1.32 0.66 2 1 C1.86424561 1.53665283 1.72849121 2.07330566 1.58862305 2.6262207 C-2.3482363 18.31867869 -5.28324423 33.91336256 -7 50 C-7.33 50 -7.66 50 -8 50 C-8.08845016 46.85434954 -8.14086835 43.70902625 -8.1875 40.5625 C-8.21263672 39.68400391 -8.23777344 38.80550781 -8.26367188 37.90039062 C-8.3236954 32.47826571 -7.66091537 28.15504548 -5.75952148 23.07885742 C-4.66136792 20.07314298 -4.06212648 17.00884027 -3.4375 13.875 C-2.47070219 9.17330958 -1.41890123 4.58414244 0 0 Z " fill="#1974B3" transform="translate(8,185)"/>
<path d="M0 0 C0.33 0 0.66 0 1 0 C1.50531187 3.72846692 2.0033133 7.45787508 2.5 11.1875 C2.64308594 12.24259766 2.78617187 13.29769531 2.93359375 14.38476562 C3.06894531 15.40634766 3.20429687 16.42792969 3.34375 17.48046875 C3.46943359 18.41785889 3.59511719 19.35524902 3.72460938 20.32104492 C3.99004692 22.90317808 4.04936064 25.40650989 4 28 C0.96437187 24.04048505 -0.12647792 22.00715825 -0.09765625 16.9921875 C-0.09443359 16.00605469 -0.09121094 15.01992188 -0.08789062 14.00390625 C-0.07951172 12.97136719 -0.07113281 11.93882812 -0.0625 10.875 C-0.05798828 9.83472656 -0.05347656 8.79445313 -0.04882812 7.72265625 C-0.03701952 5.14838038 -0.02055075 2.57421854 0 0 Z " fill="#073B6B" transform="translate(0,277)"/>
<path d="M0 0 C0.66 0.33 1.32 0.66 2 1 C-1.99976731 4.09556459 -6.04569563 7.12409332 -10.25 9.9375 C-10.87390625 10.35902344 -11.4978125 10.78054687 -12.140625 11.21484375 C-14.49569697 12.20931742 -15.60164159 11.69905496 -18 11 C-15.04968544 9.13283045 -12.08856877 7.28354701 -9.125 5.4375 C-8.28324219 4.90447266 -7.44148438 4.37144531 -6.57421875 3.82226562 C-5.76855469 3.32275391 -4.96289062 2.82324219 -4.1328125 2.30859375 C-3.01737061 1.60947876 -3.01737061 1.60947876 -1.87939453 0.89624023 C-1.25919434 0.60048096 -0.63899414 0.30472168 0 0 Z " fill="#349EE6" transform="translate(295,215)"/>
<path d="M0 0 C5.94802262 0.55636266 8.81798702 1.92345577 13.046875 6.15234375 C12.386875 6.81234375 11.726875 7.47234375 11.046875 8.15234375 C10.386875 7.51296875 9.726875 6.87359375 9.046875 6.21484375 C5.17768131 3.55477309 2.6855375 3.53256199 -1.953125 3.15234375 C-2.613125 2.82234375 -3.273125 2.49234375 -3.953125 2.15234375 C-1.953125 0.15234375 -1.953125 0.15234375 0 0 Z " fill="#48A3E8" transform="translate(361.953125,174.84765625)"/>
<path d="M0 0 C-2.94557917 1.96371945 -5.75038726 3.29765337 -9 4.6875 C-10.051875 5.14511719 -11.10375 5.60273438 -12.1875 6.07421875 C-15 7 -15 7 -18 6 C-13.48627726 1.48627726 -6.28273613 -0.66134065 0 0 Z " fill="#379AE7" transform="translate(332,260)"/>
<path d="M0 0 C0.33 0 0.66 0 1 0 C1.0269501 2.93756119 1.04681474 5.87487555 1.0625 8.8125 C1.07087891 9.64587891 1.07925781 10.47925781 1.08789062 11.33789062 C1.09111328 12.14033203 1.09433594 12.94277344 1.09765625 13.76953125 C1.10289307 14.50792236 1.10812988 15.24631348 1.11352539 16.00708008 C1 18 1 18 0 21 C-0.66 21 -1.32 21 -2 21 C-1.01 10.605 -1.01 10.605 0 0 Z " fill="#053B6C" transform="translate(511,277)"/>
<path d="M0 0 C1.32 0 2.64 0 4 0 C4 0.66 4 1.32 4 2 C4.515625 2.0825 5.03125 2.165 5.5625 2.25 C9.04455732 3.32140225 11.87200885 5.13523605 15 7 C14.67 7.66 14.34 8.32 14 9 C10.40241608 7.67726488 7.36262865 6.0805802 4.1875 3.9375 C3.39730469 3.41027344 2.60710937 2.88304687 1.79296875 2.33984375 C1.20128906 1.89769531 0.60960937 1.45554688 0 1 C0 0.67 0 0.34 0 0 Z " fill="#37A1E7" transform="translate(173,189)"/>
<path d="M0 0 C0.97961897 2.93885692 1.03775226 4.05758525 0.66015625 7.01171875 C0.56669922 7.76904297 0.47324219 8.52636719 0.37695312 9.30664062 C0.27318359 10.09232422 0.16941406 10.87800781 0.0625 11.6875 C-0.03740234 12.48478516 -0.13730469 13.28207031 -0.24023438 14.10351562 C-0.48748847 16.06977435 -0.74295637 18.03499706 -1 20 C-1.33 20 -1.66 20 -2 20 C-2 13.73 -2 7.46 -2 1 C-1.34 0.67 -0.68 0.34 0 0 Z " fill="#043154" transform="translate(2,215)"/>
<path d="M0 0 C0.33 0 0.66 0 1 0 C1.17015625 0.71285156 1.3403125 1.42570312 1.515625 2.16015625 C3.00781155 8.05746799 4.70282832 12.88369912 8 18 C4.15521125 16.54163185 2.8177085 14.63541701 1 11 C-0.32157924 7.39569299 -0.07313094 3.80280908 0 0 Z " fill="#0E8BE1" transform="translate(107,347)"/>
<path d="M0 0 C0.99 0.33 1.98 0.66 3 1 C1.37660195 2.70884005 -0.29319053 4.37446717 -2 6 C-2.66 6 -3.32 6 -4 6 C-4 6.66 -4 7.32 -4 8 C-5.32 8.33 -6.64 8.66 -8 9 C-7.04270084 7.87411986 -6.08412105 6.7493285 -5.125 5.625 C-4.59132813 4.99851562 -4.05765625 4.37203125 -3.5078125 3.7265625 C-2.38567993 2.44163349 -1.20628025 1.20628025 0 0 Z " fill="#108BE4" transform="translate(358,381)"/>
<path d="M0 0 C0 3 0 3 -2.1875 5.5625 C-4.81277706 7.83774012 -6.72443519 8.97053677 -10 10 C-8.72920407 6.1876122 -7.39322116 5.972803 -4 4 C-2.63015802 2.70420353 -1.2848951 1.38007251 0 0 Z " fill="#1090E5" transform="translate(349,390)"/>
<path d="M0 0 C0.66 0.33 1.32 0.66 2 1 C-0.97 3.97 -3.94 6.94 -7 10 C-7.33 9.01 -7.66 8.02 -8 7 C-5.36 4.69 -2.72 2.38 0 0 Z " fill="#1496E4" transform="translate(385,355)"/>
<path d="M0 0 C1.46484375 1.23697917 2.9296875 2.47395833 4.39453125 3.7109375 C5.8655046 4.89201099 7.43037794 5.95358529 9 7 C8.01 7.33 7.02 7.66 6 8 C4.17578125 6.78515625 4.17578125 6.78515625 2.3125 5.0625 C1.68988281 4.49660156 1.06726563 3.93070312 0.42578125 3.34765625 C-0.04472656 2.90292969 -0.51523437 2.45820313 -1 2 C-0.67 1.34 -0.34 0.68 0 0 Z " fill="#0A90E4" transform="translate(323,391)"/>
<path d="M0 0 C3.25543229 0.34879632 4.01873107 1.02133261 6.25 3.5625 C6.8275 4.366875 7.405 5.17125 8 6 C4.74456771 5.65120368 3.98126893 4.97866739 1.75 2.4375 C1.1725 1.633125 0.595 0.82875 0 0 Z " fill="#158AE4" transform="translate(311,381)"/>
<path d="M0 0 C2.31 0.66 4.62 1.32 7 2 C7 2.99 7 3.98 7 5 C1.25 3.25 1.25 3.25 -1 1 C-0.67 0.67 -0.34 0.34 0 0 Z " fill="#3599E4" transform="translate(398,262)"/>
<path d="M0 0 C4.455 0.99 4.455 0.99 9 2 C9 2.66 9 3.32 9 4 C4.545 3.01 4.545 3.01 0 2 C0 1.34 0 0.68 0 0 Z " fill="#3299E4" transform="translate(385,258)"/>
<path d="M0 0 C0.66 0.66 1.32 1.32 2 2 C-3.75 6 -3.75 6 -6 6 C-4.75453595 2.26360784 -3.36595047 1.81243487 0 0 Z " fill="#3899E6" transform="translate(309,206)"/>
</svg>
